<svg xmlns="http://www.w3.org/2000/svg" viewBox="0 0 430 108" role="img" aria-labelledby="title desc">
  <title id="title">TanjaMall logo - Tangier pin smile variant</title>
  <desc id="desc">A TanjaMall logo variant combining a T lettermark, a location pin cue for Tangier, and a friendly commerce smile.</desc>
  <style>
    .word { font-family: "Tajawal", "Cairo", "Aptos Display", Arial, sans-serif; font-size: 50px; font-weight: 800; letter-spacing: -0.4px; }
    .tag { font-family: "Tajawal", "Cairo", Arial, sans-serif; font-size: 13px; font-weight: 700; letter-spacing: 0; }
  </style>

  <rect x="8" y="12" width="84" height="84" rx="18" fill="#ff9900"/>
  <path d="M50 18c15.2 0 27.5 12.1 27.5 27.1 0 17.7-20.4 32.8-27.5 38.6-7.1-5.8-27.5-20.9-27.5-38.6C22.5 30.1 34.8 18 50 18Z" fill="#fffdf8"/>
  <path d="M31 38h38v10H55.5v27h-13V48H31Z" fill="#131921"/>
  <path d="M32 61c10.3 7.3 25.7 7.3 36 0" fill="none" stroke="#ff9900" stroke-linecap="round" stroke-width="5.5"/>

  <text class="word" x="116" y="66" fill="#131921">Tanja</text>
  <text class="word" x="247" y="66" fill="#ff9900">Mall</text>
  <path d="M116 76h70m65 0h72" fill="none" stroke="#d9e1dc" stroke-linecap="round" stroke-width="3"/>
  <text class="tag" x="118" y="86" fill="#68736c">Your Tangier marketplace</text>
</svg>
